<?xml version="1.0" encoding="utf-8"?>
<!-- Generator: Adobe Illustrator 19.0.0, SVG Export Plug-In . SVG Version: 6.00 Build 0)  -->
<svg version="1.1" id="Layer_1" xmlns="http://www.w3.org/2000/svg" xmlns:xlink="http://www.w3.org/1999/xlink" x="0px" y="0px"
	 viewBox="271.9 279.7 344.1 242.3" style="enable-background:new 271.9 279.7 344.1 242.3;" xml:space="preserve">
<style type="text/css">
	.st0{fill:#FABB05;}
	.st1{fill:#4285F4;}
	.st2{fill:#EA4335;}
	.st3{fill:#34A853;}
</style>
<title>google_trends_logo</title>
<g>
	<g>
		<path class="st0" d="M496.4,366.5l-43.2,43.2l-24.2-24c-20.1-19.9-24.9-24-27.9-24c-3.1,0-12.9,9.2-65.7,61.9
			c-34.1,34-62.5,63.1-63.1,64.5c-0.6,1.4-0.5,4,0.2,5.7c1.4,3.8,19.2,22.3,24.8,25.8v0c2.1,1.3,4.3,2.4,4.9,2.4
			c3.5,0,12.7-8.4,53.5-49.3l45.5-45.6l23.9,23.7c19.8,19.6,24.5,23.7,27.6,23.7c3.1,0,12.3-8.7,61.8-58
			c32-31.9,59.3-59.1,59.6-59.4l-34.4-33.8L496.4,366.5z"/>
	</g>
	<path class="st1" d="M297.3,519.6c-5.6-3.5-23.4-22-24.8-25.8c-0.7-1.8-0.7-4.4-0.2-5.7c0.6-1.4,28.9-30.4,63.1-64.5
		c52.7-52.6,62.6-61.9,65.7-61.9c3,0,8,4.3,28.2,24.1c13.5,13.2,32,31.7,41.2,41.1l16.7,17l-15.5,15.3
		c-12.4,12.3-16.2,15.3-19.1,15.3s-7.9-4.2-27.5-23.7l-23.9-23.7l-45.5,45.6c-40.7,40.8-49.9,49.3-53.5,49.3
		C301.6,522,299.4,520.9,297.3,519.6L297.3,519.6z"/>
	<path id="path1102" class="st2" d="M367.7,391.5c8.6-8.7,29.7-29.9,33.4-29.9c3,0,8,4.3,28.2,24.1c13.5,13.2,32,31.7,41.2,41.1
		l16.7,17l-15.5,15.3c-12.4,12.3-16.2,15.3-19.1,15.3s-7.9-4.2-27.5-23.7l-23.9-23.7L367.7,391.5z"/>
	<path id="path1096" class="st3" d="M579.8,363.7c-12.8-12.3-33.6-33-46.1-46.1c-19.5-20.3-22.8-24.3-22.8-27.7
		c0-4.9,3.6-8.7,9.2-9.7c2.3-0.4,23.5-0.6,47-0.4l42.8,0.4c0,0,3.8,0.2,4.9,1.3c1.3,1.4,1.3,5.9,1.3,5.9l0,45.8
		c0,34-0.5,46.3-1.6,47.8c-1.9,2.5-6.5,5-9.2,5C604.1,386,592.6,376,579.8,363.7L579.8,363.7z"/>
</g>
</svg>
